<?xml version="1.0" encoding="iso-8859-1"?>
<!-- Generator: Adobe Illustrator 17.1.0, SVG Export Plug-In . SVG Version: 6.00 Build 0)  -->
<!DOCTYPE svg PUBLIC "-//W3C//DTD SVG 1.1//EN" "http://www.w3.org/Graphics/SVG/1.1/DTD/svg11.dtd">
<svg version="1.1" id="Capa_1" xmlns="http://www.w3.org/2000/svg" xmlns:xlink="http://www.w3.org/1999/xlink" x="0px" y="0px"
	 viewBox="0 0 210.688 210.688" style="enable-background:new 0 0 210.688 210.688;" xml:space="preserve">
<path d="M90.947,70.318h28.793v29.378H90.947V70.318z M90.947,161.135h28.793v-29.377H90.947V161.135z M149.137,161.135h28.792
	v-29.377h-28.792V161.135z M32.759,99.696h28.792V70.318H32.759V99.696z M32.759,161.135h28.792v-29.377H32.759V161.135z
	 M149.137,99.696h28.792V70.318h-28.792V99.696z M210.688,47.199v130.845c0,10.815-7.442,19.615-16.59,19.615H16.59
	c-9.148,0-16.59-8.8-16.59-19.615V47.199c0-9.866,6.829-17.892,15.223-17.892h7.536V18.029c0-2.762,2.238-5,5-5c2.762,0,5,2.238,5,5
	v11.277h9.396V18.029c0-2.762,2.238-5,5-5c2.762,0,5,2.238,5,5v11.277h9.396V18.029c0-2.762,2.238-5,5-5c2.762,0,5,2.238,5,5v11.277
	h9.396V18.029c0-2.762,2.238-5,5-5c2.762,0,5,2.238,5,5v11.277h9.396V18.029c0-2.762,2.238-5,5-5c2.762,0,5,2.238,5,5v11.277h9.396
	V18.029c0-2.762,2.238-5,5-5c2.762,0,5,2.238,5,5v11.277h9.396V18.029c0-2.762,2.238-5,5-5s5,2.238,5,5v11.277h9.396V18.029
	c0-2.762,2.238-5,5-5c2.762,0,5,2.238,5,5v11.277h9.395V18.029c0-2.762,2.238-5,5-5c2.762,0,5,2.238,5,5v11.277h7.536
	C203.858,29.306,210.688,37.333,210.688,47.199z M71.551,126.758c0-2.762-2.238-5-5-5H27.759c-2.762,0-5,2.238-5,5v39.377
	c0,2.762,2.238,5,5,5h38.792c2.762,0,5-2.238,5-5V126.758z M71.551,65.318c0-2.762-2.238-5-5-5H27.759c-2.762,0-5,2.238-5,5v39.378
	c0,2.762,2.238,5,5,5h38.792c2.762,0,5-2.238,5-5V65.318z M129.74,126.758c0-2.762-2.238-5-5-5H85.947c-2.762,0-5,2.238-5,5v39.377
	c0,2.762,2.238,5,5,5h38.793c2.762,0,5-2.238,5-5V126.758z M129.74,65.318c0-2.762-2.238-5-5-5H85.947c-2.762,0-5,2.238-5,5v39.378
	c0,2.762,2.238,5,5,5h38.793c2.762,0,5-2.238,5-5V65.318z M187.929,126.758c0-2.762-2.238-5-5-5h-38.792c-2.762,0-5,2.238-5,5
	v39.377c0,2.762,2.238,5,5,5h38.792c2.762,0,5-2.238,5-5V126.758z M187.929,65.318c0-2.762-2.238-5-5-5h-38.792
	c-2.762,0-5,2.238-5,5v39.378c0,2.762,2.238,5,5,5h38.792c2.762,0,5-2.238,5-5V65.318z"/>
<g>
</g>
<g>
</g>
<g>
</g>
<g>
</g>
<g>
</g>
<g>
</g>
<g>
</g>
<g>
</g>
<g>
</g>
<g>
</g>
<g>
</g>
<g>
</g>
<g>
</g>
<g>
</g>
<g>
</g>
</svg>
