<svg id="Capa_1" enable-background="new 0 0 512 512" height="512" viewBox="0 0 512 512" width="512" xmlns="http://www.w3.org/2000/svg"><g><g><path d="m256 7.5c-137.243 0-248.5 111.257-248.5 248.5s111.257 248.5 248.5 248.5 248.5-111.257 248.5-248.5-111.257-248.5-248.5-248.5zm0 321.312c-40.213 0-72.812-32.599-72.812-72.812s32.599-72.812 72.812-72.812 72.812 32.599 72.812 72.812-32.599 72.812-72.812 72.812z" fill="#f9eed7"/></g><g><path d="m452.25 203.409c-4.779-17.88-.589-39.491-9.647-55.146-9.188-15.88-30.086-23.004-42.974-35.892s-20.012-33.786-35.892-42.974c-15.655-9.058-37.266-4.868-55.146-9.647-17.281-4.619-33.854-19.186-52.591-19.186s-35.31 14.568-52.591 19.187c-17.88 4.779-39.491.589-55.146 9.647-15.88 9.188-23.004 30.086-35.892 42.974s-33.786 20.012-42.974 35.892c-9.057 15.655-4.868 37.266-9.647 55.146-4.619 17.28-19.187 33.853-19.187 52.59s14.568 35.31 19.187 52.591c4.779 17.88.589 39.491 9.647 55.146 9.188 15.88 30.086 23.004 42.973 35.892 12.888 12.888 20.012 33.786 35.892 42.974 15.655 9.058 37.266 4.868 55.146 9.647 17.281 4.619 33.854 19.186 52.591 19.186s35.31-14.568 52.591-19.186c17.88-4.779 39.491-.59 55.146-9.647 15.88-9.188 23.004-30.086 35.892-42.973 12.888-12.888 33.786-20.012 42.974-35.892 9.058-15.655 4.868-37.266 9.647-55.146 4.619-17.281 19.186-33.854 19.186-52.591.001-18.738-14.566-35.311-19.185-52.592zm-95.725 110.632c-4.874 8.424-18.756 10.056-25.592 16.892-6.837 6.837-8.468 20.718-16.892 25.592-8.304 4.805-21.117-.674-30.602 1.861-9.167 2.45-17.499 13.673-27.439 13.673-9.939 0-18.271-11.223-27.438-13.673-9.485-2.535-22.298 2.944-30.603-1.861-8.424-4.874-10.055-18.756-16.892-25.592s-20.718-8.468-25.592-16.892c-4.805-8.305.674-21.118-1.861-30.602-2.45-9.167-13.673-17.499-13.673-27.439s11.223-18.272 13.673-27.439c2.535-9.485-2.944-22.298 1.861-30.603 4.874-8.424 18.756-10.055 25.592-16.892 6.837-6.836 8.468-20.718 16.892-25.592 8.304-4.805 21.117.674 30.602-1.861 9.167-2.45 17.499-13.673 27.439-13.673s18.272 11.223 27.439 13.673c9.485 2.535 22.298-2.944 30.603 1.861 8.424 4.874 10.055 18.756 16.892 25.592 6.837 6.837 20.718 8.468 25.592 16.892 4.805 8.304-.674 21.117 1.861 30.602 2.45 9.167 13.673 17.499 13.673 27.439 0 9.939-11.223 18.271-13.673 27.439-2.536 9.485 2.943 22.299-1.862 30.603z" fill="#d88a55"/></g><g><path d="m256 7.5c-5.038 0-10.036.168-15 .464 130.256 7.757 233.5 115.831 233.5 248.036s-103.244 240.279-233.5 248.036c4.964.296 9.962.464 15 .464 137.243 0 248.5-111.257 248.5-248.5s-111.257-248.5-248.5-248.5z" fill="#f2ddb1"/></g><g><path d="m452.25 203.409c-4.779-17.88-.589-39.491-9.647-55.146-9.188-15.88-30.086-23.004-42.974-35.892s-20.012-33.786-35.892-42.974c-15.655-9.057-37.266-4.868-55.146-9.647-.561-.15-1.121-.311-1.68-.481 9.626.681 18.975 5.586 26.827 10.128 15.88 9.188 23.004 30.086 35.892 42.974s33.785 20.012 42.973 35.892c9.057 15.655 4.868 37.265 9.647 55.146 4.619 17.281 19.187 33.854 19.187 52.591s-14.568 35.31-19.187 52.591c-4.779 17.881-.59 39.491-9.647 55.146-9.188 15.88-30.086 23.004-42.974 35.892s-20.012 33.786-35.892 42.974c-7.851 4.543-17.201 9.447-26.826 10.128.56-.17 1.12-.331 1.681-.481 17.88-4.779 39.491-.59 55.146-9.647 15.88-9.188 23.004-30.086 35.892-42.974s33.786-20.012 42.974-35.892c9.058-15.655 4.868-37.266 9.647-55.146 4.619-17.281 19.187-33.854 19.187-52.591-.002-18.737-14.569-35.31-19.188-52.591z" fill="#ae6834"/></g><g><path d="m164.749 139.51c2.601 9.89-3.307 20.016-13.196 22.617-9.89 2.601-20.016-3.307-22.617-13.196-2.602-9.89 3.307-20.016 13.196-22.617 9.89-2.602 20.016 3.306 22.617 13.196z" fill="#875740"/></g><g><path d="m382.966 139.51c2.601 9.89-3.307 20.016-13.196 22.617-9.89 2.601-20.016-3.307-22.617-13.196-2.602-9.89 3.307-20.016 13.196-22.617 9.89-2.602 20.016 3.306 22.617 13.196z" fill="#875740"/></g><g><path d="m164.749 361.981c2.601 9.89-3.307 20.016-13.196 22.617-9.89 2.602-20.016-3.307-22.617-13.196s3.307-20.015 13.196-22.617c9.89-2.601 20.016 3.307 22.617 13.196z" fill="#875740"/></g><g><path d="m382.966 361.981c2.601 9.89-3.307 20.016-13.196 22.617-9.89 2.602-20.016-3.307-22.617-13.196s3.307-20.015 13.196-22.617c9.89-2.601 20.016 3.307 22.617 13.196z" fill="#875740"/></g><g><path d="m437.02 74.981c-48.352-48.352-112.64-74.981-181.02-74.981-52.57 0-103.082 15.816-146.075 45.74-3.399 2.366-4.237 7.041-1.871 10.44 2.367 3.4 7.042 4.238 10.44 1.872 40.466-28.165 88.015-43.052 137.506-43.052 64.374 0 124.894 25.068 170.413 70.587s70.587 106.04 70.587 170.413-25.068 124.894-70.587 170.413-106.039 70.587-170.413 70.587-124.894-25.068-170.413-70.587-70.587-106.039-70.587-170.413c0-34.789 7.25-68.35 21.546-99.752 13.816-30.346 33.444-57.086 58.337-79.479 3.08-2.771 3.331-7.513.561-10.592-2.771-3.079-7.513-3.331-10.592-.561-26.436 23.78-47.282 52.182-61.958 84.416-15.191 33.367-22.894 69.02-22.894 105.968 0 68.38 26.628 132.668 74.981 181.02 48.352 48.351 112.639 74.98 181.019 74.98s132.668-26.629 181.02-74.98c48.351-48.352 74.98-112.64 74.98-181.02s-26.629-132.667-74.98-181.019z"/><path d="m256 336.312c32.349 0 61.395-19.253 73.998-49.049 1.613-3.815-.171-8.215-3.986-9.829-3.814-1.614-8.215.172-9.829 3.986-10.25 24.233-33.872 39.892-60.182 39.892-36.013 0-65.312-29.299-65.312-65.312s29.299-65.312 65.312-65.312 65.312 29.299 65.312 65.312c0 4.142 3.358 7.5 7.5 7.5s7.5-3.358 7.5-7.5c0-44.285-36.028-80.312-80.312-80.312-44.285 0-80.312 36.028-80.312 80.312s36.026 80.312 80.311 80.312z"/><path d="m62.905 144.507c-6.294 10.878-7.049 23.465-7.779 35.638-.458 7.636-.891 14.849-2.622 21.328-1.634 6.111-4.785 12.364-8.121 18.983-5.565 11.042-11.32 22.46-11.32 35.544s5.755 24.502 11.32 35.544c3.336 6.62 6.487 12.872 8.121 18.983 1.731 6.479 2.164 13.691 2.622 21.327.73 12.173 1.485 24.76 7.779 35.638 6.39 11.045 16.988 18.005 27.237 24.736 6.324 4.153 12.296 8.076 16.925 12.704 4.628 4.628 8.551 10.602 12.704 16.925 6.731 10.249 13.69 20.846 24.736 27.237 10.879 6.294 23.465 7.049 35.638 7.779 7.636.458 14.849.891 21.328 2.622 6.111 1.633 12.363 4.785 18.983 8.121 11.042 5.565 22.461 11.32 35.544 11.32 13.084 0 24.502-5.755 35.544-11.32 6.62-3.336 12.872-6.487 18.983-8.121 6.479-1.731 13.691-2.164 21.328-2.622 12.172-.73 24.76-1.485 35.638-7.779 11.045-6.391 18.004-16.988 24.735-27.236 4.153-6.324 8.076-12.297 12.705-16.926 4.628-4.628 10.602-8.551 16.925-12.704 10.249-6.731 20.846-13.69 27.237-24.736 6.294-10.878 7.049-23.466 7.779-35.639.458-7.636.89-14.848 2.622-21.327 1.634-6.111 4.785-12.364 8.121-18.983 5.565-11.042 11.32-22.46 11.32-35.544s-5.755-24.501-11.32-35.544c-3.336-6.62-6.487-12.872-8.121-18.983-1.731-6.479-2.164-13.691-2.622-21.327-.73-12.173-1.485-24.76-7.779-35.639-6.391-11.044-16.988-18.004-27.236-24.734-6.324-4.153-12.297-8.076-16.926-12.705-4.628-4.628-8.551-10.602-12.704-16.925-6.731-10.249-13.69-20.846-24.736-27.237-10.878-6.294-23.466-7.049-35.639-7.779-7.636-.458-14.848-.891-21.326-2.622-6.111-1.634-12.364-4.785-18.983-8.121-11.042-5.565-22.46-11.32-35.544-11.32-13.083 0-24.502 5.755-35.544 11.32-6.62 3.336-12.872 6.487-18.983 8.121-6.479 1.731-13.691 2.164-21.327 2.622-12.173.73-24.76 1.485-35.638 7.778-11.045 6.39-18.005 16.988-24.735 27.236-4.153 6.324-8.076 12.297-12.705 16.926-4.628 4.629-10.602 8.551-16.926 12.705-10.25 6.731-20.848 13.691-27.238 24.736zm-5.127 82.7c2.021-4.009 4.071-8.1 5.845-12.289l62.642 41.082-62.642 41.082c-1.774-4.189-3.824-8.28-5.845-12.289-4.996-9.913-9.715-19.276-9.715-28.794.001-9.516 4.719-18.879 9.715-28.792zm94.241 208.904c-7.97-4.611-13.672-13.294-19.71-22.487-4.385-6.677-8.92-13.582-14.636-19.298-5.715-5.716-12.62-10.25-19.297-14.635-9.193-6.037-17.876-11.74-22.487-19.709-4.517-7.807-5.135-18.113-5.789-29.024-.375-6.246-.769-12.655-1.916-18.927l67.464-44.245c1.582 3.013 3.539 5.789 5.388 8.402 2.378 3.361 4.624 6.535 5.333 9.188.769 2.877.41 6.887.03 11.132-.611 6.829-1.304 14.569 2.584 21.29 3.941 6.812 11.049 10.09 17.321 12.982 3.82 1.762 7.428 3.425 9.46 5.457s3.696 5.64 5.457 9.46c2.892 6.272 6.17 13.38 12.982 17.321 6.721 3.889 14.461 3.195 21.29 2.584 4.244-.38 8.254-.739 11.132.03 2.653.709 5.827 2.955 9.188 5.333 2.613 1.849 5.389 3.806 8.402 5.388l-44.244 67.464c-6.272-1.147-12.681-1.542-18.927-1.916-10.912-.655-21.219-1.274-29.025-5.79zm9.32-221.955c-.433-4.835-.88-9.835.627-12.441 1.559-2.694 6.165-4.818 10.619-6.872 4.847-2.235 9.859-4.546 13.785-8.473 3.926-3.926 6.237-8.938 8.472-13.784 2.054-4.454 4.178-9.06 6.872-10.619 2.606-1.507 7.605-1.061 12.441-.627 5.358.479 10.899.975 16.342-.48 5.25-1.403 9.688-4.543 13.979-7.58 4.058-2.871 8.253-5.839 11.523-5.839s7.465 2.968 11.523 5.839c4.292 3.037 8.73 6.177 13.979 7.58 5.441 1.454 10.983.959 16.342.48 4.837-.432 9.837-.88 12.441.627 2.694 1.559 4.818 6.165 6.872 10.619 2.235 4.847 4.547 9.859 8.473 13.785s8.938 6.237 13.785 8.473c4.454 2.054 9.06 4.178 10.619 6.872 1.508 2.606 1.06 7.606.627 12.442-.48 5.358-.975 10.9.479 16.341 1.403 5.25 4.543 9.688 7.58 13.98 2.871 4.057 5.839 8.253 5.839 11.522 0 3.27-2.968 7.465-5.839 11.523-3.037 4.292-6.177 8.73-7.58 13.979-1.455 5.442-.959 10.983-.48 16.342.433 4.836.88 9.836-.627 12.442-1.559 2.694-6.165 4.818-10.619 6.873-4.847 2.235-9.859 4.546-13.785 8.472s-6.237 8.938-8.472 13.784c-2.054 4.454-4.178 9.06-6.872 10.619-2.605 1.507-7.605 1.06-12.441.627-5.359-.48-10.9-.975-16.342.479-5.25 1.403-9.688 4.543-13.979 7.58-4.057 2.871-8.253 5.839-11.523 5.839s-7.466-2.968-11.523-5.839c-4.291-3.037-8.729-6.176-13.979-7.58-2.709-.724-5.443-.965-8.167-.965-2.747 0-5.484.245-8.175.485-4.835.433-9.835.88-12.441-.627-2.694-1.559-4.818-6.165-6.873-10.619-2.235-4.847-4.546-9.859-8.472-13.785s-8.938-6.237-13.785-8.473c-4.454-2.054-9.06-4.178-10.619-6.872-1.508-2.606-1.06-7.606-.627-12.441.479-5.359.975-10.9-.48-16.342-1.403-5.25-4.543-9.688-7.58-13.979-2.871-4.057-5.839-8.252-5.839-11.523 0-3.27 2.968-7.465 5.839-11.522 3.037-4.292 6.177-8.73 7.58-13.98 1.456-5.442.96-10.983.481-16.342zm123.454 240.066c-9.913 4.996-19.276 9.715-28.793 9.715s-18.88-4.719-28.794-9.715c-4.009-2.021-8.1-4.071-12.288-5.844l41.082-62.643 41.082 62.642c-4.188 1.774-8.28 3.824-12.289 5.845zm157.107-123.266c-.655 10.912-1.273 21.218-5.79 29.025-4.611 7.97-13.294 13.672-22.488 19.71-6.677 4.385-13.582 8.919-19.297 14.635-5.716 5.716-10.25 12.621-14.636 19.298-6.038 9.193-11.74 17.876-19.709 22.487-7.807 4.516-18.113 5.134-29.024 5.789-6.246.375-12.656.769-18.928 1.916l-44.245-67.464c3.013-1.582 5.789-3.539 8.402-5.388 3.361-2.378 6.536-4.624 9.188-5.333 2.876-.769 6.886-.41 11.132-.03 6.829.61 14.569 1.303 21.29-2.584 6.812-3.941 10.09-11.049 12.982-17.321 1.761-3.819 3.425-7.427 5.457-9.459 2.032-2.033 5.64-3.696 9.46-5.458 6.271-2.892 13.379-6.17 17.321-12.982 3.888-6.72 3.195-14.461 2.585-21.29-.38-4.246-.739-8.255.03-11.132.709-2.653 2.956-5.827 5.333-9.189 1.849-2.613 3.806-5.389 5.388-8.402l67.464 44.244c-1.145 6.273-1.54 12.682-1.915 18.928zm12.321-46.163c-2.021 4.009-4.071 8.1-5.845 12.289l-62.641-41.082 62.641-41.082c1.774 4.189 3.824 8.28 5.845 12.289 4.996 9.913 9.715 19.276 9.715 28.793s-4.719 18.88-9.715 28.793zm-94.24-208.904c7.97 4.611 13.672 13.294 19.709 22.487 4.385 6.677 8.92 13.582 14.636 19.298s12.621 10.251 19.298 14.636c9.193 6.037 17.875 11.74 22.487 19.709 4.517 7.807 5.134 18.113 5.789 29.025.374 6.246.769 12.655 1.916 18.926l-67.463 44.245c-1.582-3.013-3.539-5.789-5.388-8.402-2.378-3.361-4.624-6.536-5.333-9.189-.768-2.876-.41-6.886-.03-11.131.611-6.83 1.304-14.57-2.585-21.291-3.941-6.812-11.049-10.09-17.32-12.981-3.82-1.762-7.428-3.425-9.46-5.458-2.032-2.032-3.696-5.64-5.458-9.46-2.892-6.271-6.17-13.379-12.982-17.321-6.719-3.888-14.459-3.195-21.29-2.585-4.246.379-8.255.738-11.132-.03-2.653-.709-5.828-2.956-9.188-5.333-2.613-1.849-5.389-3.806-8.402-5.388l44.244-67.463c6.272 1.147 12.681 1.541 18.926 1.916 10.912.655 21.219 1.274 29.026 5.79zm-132.774-18.11c9.913-4.996 19.276-9.715 28.793-9.715s18.88 4.719 28.793 9.715c4.009 2.021 8.1 4.071 12.289 5.844l-41.082 62.642-41.082-62.641c4.188-1.774 8.279-3.825 12.289-5.845zm-109.533 59.895c5.716-5.715 10.25-12.621 14.636-19.298 6.038-9.193 11.74-17.877 19.709-22.487 7.807-4.517 18.113-5.134 29.025-5.789 6.246-.375 12.655-.77 18.927-1.916l44.245 67.463c-3.013 1.582-5.789 3.539-8.402 5.388-3.361 2.378-6.536 4.624-9.188 5.333-2.877.77-6.886.41-11.132.03-6.83-.611-14.57-1.304-21.29 2.585-6.812 3.941-10.09 11.049-12.982 17.321-1.761 3.819-3.425 7.427-5.457 9.46-2.033 2.033-5.641 3.696-9.461 5.458-6.271 2.892-13.379 6.169-17.32 12.981-3.888 6.72-3.195 14.46-2.585 21.29.38 4.246.739 8.255-.03 11.132-.709 2.653-2.956 5.828-5.333 9.189-1.849 2.613-3.806 5.389-5.388 8.402l-67.464-44.244c1.147-6.272 1.542-12.681 1.916-18.927.654-10.912 1.272-21.218 5.789-29.025 4.611-7.969 13.294-13.671 22.487-19.708 6.677-4.387 13.582-8.922 19.298-14.638z"/><path d="m133.732 166.69c4.033 2.353 8.519 3.556 13.067 3.556 2.221 0 4.457-.287 6.662-.867 13.873-3.65 22.191-17.906 18.541-31.779-1.768-6.72-6.047-12.35-12.049-15.852s-13.009-4.456-19.729-2.689c-6.72 1.768-12.35 6.047-15.852 12.049s-4.457 13.009-2.689 19.729c1.768 6.722 6.047 12.352 12.049 15.853zm3.596-28.021c1.483-2.541 3.867-4.353 6.712-5.102.934-.246 1.88-.367 2.82-.367 1.926 0 3.826.509 5.533 1.506 2.542 1.482 4.353 3.866 5.102 6.712 1.545 5.874-1.977 11.911-7.851 13.455-2.846.749-5.812.345-8.353-1.139-2.542-1.483-4.354-3.867-5.102-6.712s-.344-5.812 1.139-8.353z"/><path d="m351.949 166.69c4.033 2.353 8.519 3.556 13.067 3.556 2.221 0 4.457-.287 6.662-.867 13.873-3.65 22.19-17.905 18.542-31.778v-.001c-3.65-13.873-17.905-22.19-31.779-18.541-6.72 1.768-12.35 6.047-15.852 12.049s-4.457 13.009-2.69 19.729c1.769 6.722 6.048 12.352 12.05 15.853zm3.596-28.021c1.483-2.541 3.867-4.353 6.712-5.102.936-.247 1.875-.364 2.8-.364 4.883 0 9.357 3.276 10.655 8.214 1.545 5.874-1.977 11.911-7.851 13.456-2.845.749-5.812.345-8.353-1.139-2.542-1.483-4.354-3.867-5.102-6.712s-.344-5.812 1.139-8.353z"/><path d="m159.953 344.221c-6.001-3.502-13.009-4.456-19.729-2.69-13.873 3.65-22.191 17.905-18.541 31.779 3.069 11.664 13.633 19.4 25.165 19.4 2.184 0 4.404-.278 6.613-.859 6.72-1.768 12.35-6.047 15.852-12.049s4.457-13.009 2.689-19.729-6.047-12.35-12.049-15.852zm-3.596 28.022c-1.482 2.542-3.866 4.354-6.712 5.102-5.873 1.548-11.911-1.976-13.456-7.851-.748-2.846-.344-5.812 1.139-8.354 1.483-2.541 3.867-4.353 6.712-5.102.934-.246 1.88-.367 2.82-.367 1.926 0 3.826.509 5.533 1.506 2.541 1.483 4.353 3.867 5.102 6.712.749 2.846.345 5.813-1.138 8.354z"/><path d="m390.22 360.073c-1.768-6.72-6.047-12.35-12.049-15.852s-13.007-4.456-19.729-2.69c-13.873 3.65-22.191 17.905-18.542 31.779 3.069 11.664 13.633 19.4 25.165 19.4 2.184 0 4.404-.278 6.613-.859 13.873-3.648 22.191-17.904 18.542-31.778 0 .001 0 .001 0 0zm-22.358 17.272c-5.871 1.548-11.91-1.976-13.456-7.851-.749-2.846-.344-5.812 1.139-8.354 1.483-2.541 3.867-4.353 6.712-5.102.936-.247 1.875-.364 2.8-.364 4.882 0 9.357 3.276 10.655 8.214 1.546 5.876-1.976 11.912-7.85 13.457z"/></g></g></svg>