<svg id="Layer_1" enable-background="new 0 0 497 497" height="512" viewBox="0 0 497 497" width="512" xmlns="http://www.w3.org/2000/svg"><g><g><path d="m356.75 74.43c-14.309-9.835-29.987-19.119-47.112-27.661-17.368-8.664-34.414-15.687-51.038-21.254-27.505 81.663-12.11 148.966-12.11 148.966s59.925-26.776 110.26-100.051z" fill="#cf7a15"/><path d="m454.796 182.514c.298-.242.609-.452.92-.661-7.442-13.798-16.535-27.692-27.398-41.354l-35.293 71.379c25.21-4.044 46.362-16.841 61.771-29.364z" fill="#cf7a15"/><path d="m473.953 186.992c-3.418-7.197-12.955-9.519-19.158-4.478-15.409 12.523-36.56 25.32-61.772 29.364l35.293-71.379c4.161-5.606 6.65-14.52 1.556-20.385-15.18-17.476-33.199-34.374-54.305-50.054-6.793-5.046-14.492-1.927-18.818 4.37-50.335 73.275-110.26 100.05-110.26 100.05s-15.396-67.303 12.11-148.966c2.438-7.24.202-15.316-7.867-17.694-3.097-.913-38.417-15.383-55.682-2.513-16.742 12.48-40.087 38.509-65.726 92.076-25.793 53.887-33.651 97.78-30.577 112.06 5.002 23.239 70.595 53.177 97.52 66.608 140.702 70.187 267.127 102.082 290.812 54.18 15.577-31.501 13.966-86.201-13.126-143.239z" fill="#a1550a"/><g fill="#914c09"><path d="m473.953 186.992c-3.418-7.197-12.955-9.519-19.158-4.478-5.143 4.18-10.94 8.383-17.301 12.289 23.643 54.182 24.449 105.368 9.586 135.427-5.851 11.833-17.98 18.789-35.036 21.509 38.249 4.367 65.31-1.838 75.036-21.509 15.576-31.5 13.965-86.2-13.127-143.238z"/><path d="m389.873 120.114c5.095 5.865 2.605 14.779-1.556 20.385l-35.293 71.379c6.476 2.622 24.976 4.122 40 0l35.293-71.379c4.161-5.606 6.65-14.52 1.556-20.385-15.18-17.476-33.199-34.374-54.305-50.054-6.793-5.046-14.492-1.927-18.818 4.37-1.852 2.696-3.718 5.321-5.592 7.891 14.545 12.102 27.418 24.787 38.715 37.793z"/><path d="m210.733 7.82c8.069 2.378 10.305 10.455 7.867 17.694-18.786 55.777-17.559 104.855-14.894 130.364 2.103 20.126 25.053 31.038 41.632 19.436.383-.268.767-.546 1.152-.834-7.99-33.48-5.66-96.208 12.11-148.966 2.438-7.24.202-15.316-7.867-17.694-2.944-.868-35.008-13.974-52.997-4.201 6.849 1.891 11.91 3.88 12.997 4.201z"/></g></g><g><g><path d="m109.604 360.605-31.877-74.307c-11.83 13.064-21.839 26.47-30.175 39.88.302.231.604.464.89.728 14.786 13.643 35.602 28.136 61.162 33.699z" fill="#cf7a15"/><path d="m134.914 219.226c-15.461 10.431-49.052 38.124-57.511 46.69-3.562 3.607-4.55 9.02-2.56 13.658l2.885 6.724 31.877 74.307c-25.559-5.564-46.376-20.056-61.162-33.699-.286-.264-.588-.497-.89-.728-5.979-4.577-14.835-2.762-18.577 4.015-30.964 56.083-35.41 111.397-21.376 144.112 15.701 36.599 128.884 25.734 235.847-9.826-1.414-2.375-106.888-241.183-108.533-245.253z" fill="#a1550a"/></g><path d="m223.241 459.015c-13.565-7.497-41.46-33.749-71.251-103.193-24.922-58.095-28.665-93.572-27.508-115.818 1.199-23.052 26.466-47.731 74.81 17.275 71.805 96.552 84.414 235.152 23.949 201.736z" fill="#cf7a15"/><path d="m199.292 257.279c-37.355-50.23-60.927-46.909-70.269-32.17 8.805 6.555 18.898 16.881 30.269 32.17 53.151 71.469 73.865 165.972 56.519 196.7 2.799 2.207 5.293 3.855 7.43 5.036 60.465 33.416 47.856-105.184-23.949-201.736z" fill="#c4710e"/></g></g></svg>